<svg width="18" height="18" viewBox="0 0 18 18" fill="none" xmlns="http://www.w3.org/2000/svg">
<path d="M12.5 11.0028H11.71L11.43 10.7328C12.41 9.59284 13 8.11284 13 6.50284C13 2.91284 10.09 0.00283813 6.5 0.00283813C2.91 0.00283813 0 2.91284 0 6.50284C0 10.0928 2.91 13.0028 6.5 13.0028C8.11 13.0028 9.59 12.4128 10.73 11.4328L11 11.7128V12.5028L16 17.4928L17.49 16.0028L12.5 11.0028ZM6.5 11.0028C4.01 11.0028 2 8.99284 2 6.50284C2 4.01284 4.01 2.00284 6.5 2.00284C8.99 2.00284 11 4.01284 11 6.50284C11 8.99284 8.99 11.0028 6.5 11.0028Z" fill="black"/>
</svg>
