<svg width="24" height="25" viewBox="0 0 24 25" fill="none" xmlns="http://www.w3.org/2000/svg">
<path d="M7 18.0028C5.9 18.0028 5.01 18.9028 5.01 20.0028C5.01 21.1028 5.9 22.0028 7 22.0028C8.1 22.0028 9 21.1028 9 20.0028C9 18.9028 8.1 18.0028 7 18.0028ZM1 2.00284V4.00284H3L6.6 11.5928L5.25 14.0428C5.09 14.3228 5 14.6528 5 15.0028C5 16.1028 5.9 17.0028 7 17.0028H19V15.0028H7.42C7.28 15.0028 7.17 14.8928 7.17 14.7528L7.2 14.6328L8.1 13.0028H15.55C16.3 13.0028 16.96 12.5928 17.3 11.9728L20.88 5.48284C20.96 5.34284 21 5.17284 21 5.00284C21 4.45284 20.55 4.00284 20 4.00284H5.21L4.27 2.00284H1ZM17 18.0028C15.9 18.0028 15.01 18.9028 15.01 20.0028C15.01 21.1028 15.9 22.0028 17 22.0028C18.1 22.0028 19 21.1028 19 20.0028C19 18.9028 18.1 18.0028 17 18.0028Z" fill="black"/>
</svg>
